<?xml version="1.0" standalone="no"?>
<!DOCTYPE svg PUBLIC "-//W3C//DTD SVG 20010904//EN"
 "http://www.w3.org/TR/2001/REC-SVG-20010904/DTD/svg10.dtd">
<svg version="1.0" xmlns="http://www.w3.org/2000/svg"
 width="41.000000pt" height="48.000000pt" viewBox="0 0 41.000000 48.000000"
 preserveAspectRatio="xMidYMid meet">

<g transform="translate(0.000000,48.000000) scale(0.100000,-0.100000)"
fill="#000000" stroke="none">
<path d="M158 431 c-85 -28 -148 -109 -148 -191 0 -60 42 -135 92 -164 112
-66 236 -28 289 88 26 56 24 103 -7 164 -41 83 -144 129 -226 103z m134 -37
c47 -24 81 -79 86 -139 4 -45 0 -61 -22 -100 -27 -44 -46 -58 -46 -31 0 7 6
19 13 25 17 13 10 69 -11 94 -19 21 -51 22 -80 1 -26 -18 -31 -80 -7 -98 9 -7
12 -19 9 -33 -8 -30 -20 -21 -28 22 -4 21 -13 35 -21 35 -20 0 -19 7 6 41 11
16 17 33 14 39 -3 5 -1 10 4 10 9 0 9 22 2 48 -1 1 -1 4 -1 7 0 14 -36 41 -46
34 -6 -5 -16 -3 -22 3 -9 9 -12 9 -12 0 0 -7 -7 -12 -15 -12 -8 0 -15 -7 -15
-15 0 -8 -8 -15 -17 -15 -13 0 -14 -3 -5 -12 8 -8 9 -15 1 -25 -9 -10 -8 -13
1 -13 7 0 10 -7 7 -15 -4 -9 6 -24 26 -39 27 -22 29 -26 13 -32 -9 -4 -22 -18
-27 -33 l-10 -26 -25 40 c-90 149 73 319 228 239z"/>
</g>
</svg>
